<svg width="18" height="18" viewBox="0 0 18 18" fill="none" xmlns="http://www.w3.org/2000/svg">
<g clip-path="url(#clip0_143_226)">
<path d="M5.25 16.5H3.75C3.15326 16.5 2.58097 16.2629 2.15901 15.841C1.73705 15.419 1.5 14.8467 1.5 14.25V3.75C1.5 3.15326 1.73705 2.58097 2.15901 2.15901C2.58097 1.73705 3.15326 1.5 3.75 1.5H5.25C5.44891 1.5 5.63968 1.42098 5.78033 1.28033C5.92098 1.13968 6 0.948912 6 0.75C6 0.551088 5.92098 0.360322 5.78033 0.21967C5.63968 0.0790176 5.44891 0 5.25 0L3.75 0C2.7558 0.00119089 1.80267 0.396661 1.09966 1.09966C0.396661 1.80267 0.00119089 2.7558 0 3.75L0 14.25C0.00119089 15.2442 0.396661 16.1973 1.09966 16.9003C1.80267 17.6033 2.7558 17.9988 3.75 18H5.25C5.44891 18 5.63968 17.921 5.78033 17.7803C5.92098 17.6397 6 17.4489 6 17.25C6 17.0511 5.92098 16.8603 5.78033 16.7197C5.63968 16.579 5.44891 16.5 5.25 16.5Z" fill="#A2A2C2"/>
<path d="M13.9035 14.0303L17.3438 10.5908C17.7643 10.1681 18.0004 9.5962 18.0004 9C18.0004 8.40381 17.7643 7.83187 17.3438 7.40925L13.9035 3.96975C13.762 3.83313 13.5726 3.75754 13.3759 3.75924C13.1793 3.76095 12.9912 3.83983 12.8521 3.97889C12.7131 4.11794 12.6342 4.30605 12.6325 4.5027C12.6308 4.69935 12.7064 4.8888 12.843 5.03025L16.062 8.25H4.5C4.30109 8.25 4.11032 8.32902 3.96967 8.46967C3.82902 8.61032 3.75 8.80109 3.75 9C3.75 9.19891 3.82902 9.38968 3.96967 9.53033C4.11032 9.67098 4.30109 9.75 4.5 9.75H16.0627L12.843 12.9698C12.7714 13.0389 12.7142 13.1217 12.6749 13.2132C12.6356 13.3047 12.6149 13.4031 12.6141 13.5027C12.6132 13.6023 12.6322 13.701 12.6699 13.7932C12.7076 13.8854 12.7633 13.9691 12.8337 14.0395C12.9041 14.11 12.9879 14.1657 13.08 14.2034C13.1722 14.2411 13.271 14.2601 13.3706 14.2592C13.4701 14.2583 13.5686 14.2376 13.6601 14.1983C13.7516 14.159 13.8343 14.1019 13.9035 14.0303Z" fill="#A2A2C2"/>
</g>
<defs>
<clipPath id="clip0_143_226">
<rect width="18" height="18" fill="white"/>
</clipPath>
</defs>
</svg>
