<svg width="22" height="26" viewBox="0 0 22 26" fill="none" xmlns="http://www.w3.org/2000/svg">
<path d="M11 26C9.07 26 7.5 24.43 7.5 22.5C7.5 22.224 7.724 22 8 22C8.276 22 8.5 22.224 8.5 22.5C8.5 23.878 9.621 25 11 25C12.379 25 13.5 23.878 13.5 22.5C13.5 22.224 13.724 22 14 22C14.276 22 14.5 22.224 14.5 22.5C14.5 24.43 12.93 26 11 26Z" fill="#A2A2C2"/>
<path d="M19.5 21H2.5C1.673 21 0.5 20.327 0.5 19.5C0.5 19.061 1.191 18.646 1.524 18.36C1.545 18.342 1.568 18.326 1.591 18.312C3.123 16.982 4 15.064 4 13.04V10C4 6.14 7.141 3 11 3C11.08 3 11.177 3.003 11.257 3.019C11.528 3.072 11.704 3.335 11.651 3.606C11.599 3.877 11.335 4.053 11.063 4C7.691 4 5 6.692 5 10V13.04C5 15.383 3.974 17.599 2.185 19.121C2.169 19.134 2.153 19.147 2.135 19.158C2.049 19.25 2 19.372 2 19.5C2 19.776 2.225 20 2.5 20H19.5C19.775 20 20 19.776 20 19.5C20 19.372 19.951 19.249 19.863 19.157C19.846 19.146 19.831 19.134 19.815 19.121C18.026 17.599 17 15.383 17 13.04V11.97C17 11.694 17.224 11.47 17.5 11.47C17.776 11.47 18 11.694 18 11.97V13.04C18 15.066 18.878 16.984 20.411 18.314C20.434 18.328 20.456 18.343 20.475 18.36C20.809 18.646 21.5 19.061 21.5 19.5C21.5 20.327 20.327 21 19.5 21Z" fill="#A2A2C2"/>
<circle cx="18" cy="4" r="4" fill="#FF808B"/>
</svg>
