<svg width="33" height="29" viewBox="0 0 33 29" fill="none" xmlns="http://www.w3.org/2000/svg">
<path d="M24.0011 16.247C23.8565 13.907 23.0303 11.6605 21.6243 9.78442C20.2184 7.90834 18.2941 6.48469 16.0888 5.68899C13.8836 4.8933 11.4936 4.76033 9.21369 5.30649C6.93375 5.85266 4.86347 7.05407 3.25808 8.76262C1.65269 10.4712 0.582369 12.6122 0.179071 14.9217C-0.224228 17.2312 0.0571252 19.6082 0.988445 21.7597C1.91976 23.9112 3.46034 25.7432 5.42024 27.0297C7.38014 28.3163 9.67369 29.0012 12.0181 29H19.0011C20.3268 28.9987 21.5978 28.4715 22.5352 27.5341C23.4726 26.5967 23.9998 25.3257 24.0011 24V16.247ZM22.0011 24C22.0011 24.7956 21.6851 25.5587 21.1224 26.1213C20.5598 26.6839 19.7968 27 19.0011 27H12.0181C10.6071 26.9994 9.21197 26.7013 7.92383 26.1253C6.63568 25.5493 5.4834 24.7082 4.54213 23.657C3.5963 22.6063 2.88606 21.3655 2.45902 20.0178C2.03199 18.6701 1.89803 17.2467 2.06613 15.843C2.33156 13.6289 3.32632 11.5662 4.89357 9.97992C6.46082 8.39366 8.51143 7.37411 10.7221 7.082C11.1534 7.02795 11.5875 7.00056 12.0221 7C14.3526 6.99364 16.6109 7.8079 18.4011 9.3C19.4467 10.1689 20.3048 11.2412 20.9237 12.4516C21.5425 13.6621 21.909 14.9856 22.0011 16.342V24Z" fill="#A2A2C2"/>
<path d="M8.00098 14H12.001C12.2662 14 12.5205 13.8946 12.7081 13.7071C12.8956 13.5196 13.001 13.2652 13.001 13C13.001 12.7348 12.8956 12.4804 12.7081 12.2929C12.5205 12.1054 12.2662 12 12.001 12H8.00098C7.73576 12 7.48141 12.1054 7.29387 12.2929C7.10633 12.4804 7.00098 12.7348 7.00098 13C7.00098 13.2652 7.10633 13.5196 7.29387 13.7071C7.48141 13.8946 7.73576 14 8.00098 14Z" fill="#A2A2C2"/>
<path d="M16.001 16H8.00098C7.73576 16 7.48141 16.1054 7.29387 16.2929C7.10633 16.4804 7.00098 16.7348 7.00098 17C7.00098 17.2652 7.10633 17.5196 7.29387 17.7071C7.48141 17.8946 7.73576 18 8.00098 18H16.001C16.2662 18 16.5205 17.8946 16.7081 17.7071C16.8956 17.5196 17.001 17.2652 17.001 17C17.001 16.7348 16.8956 16.4804 16.7081 16.2929C16.5205 16.1054 16.2662 16 16.001 16Z" fill="#A2A2C2"/>
<path d="M16.001 20H8.00098C7.73576 20 7.48141 20.1054 7.29387 20.2929C7.10633 20.4804 7.00098 20.7348 7.00098 21C7.00098 21.2652 7.10633 21.5196 7.29387 21.7071C7.48141 21.8946 7.73576 22 8.00098 22H16.001C16.2662 22 16.5205 21.8946 16.7081 21.7071C16.8956 21.5196 17.001 21.2652 17.001 21C17.001 20.7348 16.8956 20.4804 16.7081 20.2929C16.5205 20.1054 16.2662 20 16.001 20Z" fill="#A2A2C2"/>
<circle cx="23.5" cy="9.5" r="9" fill="#FF808B" stroke="#FEFEFE"/>
</svg>
