<svg width="34" height="34" viewBox="0 0 34 34" fill="none" xmlns="http://www.w3.org/2000/svg">
<g opacity="0.7">
<path fill-rule="evenodd" clip-rule="evenodd" d="M29.6418 16.6462C29.613 16.6458 29.5753 16.6458 29.5141 16.6458H25.8271C23.8106 16.6458 22.3127 18.1457 22.3127 19.8333C22.3127 21.521 23.8106 23.0208 25.8271 23.0208H29.5141C29.5753 23.0208 29.613 23.0208 29.6418 23.0205C29.669 23.0202 29.6764 23.0198 29.6764 23.0198C29.9684 23.002 30.094 22.8049 30.1036 22.6864C30.1036 22.6864 30.1038 22.6775 30.104 22.6646C30.1043 22.6395 30.1043 22.606 30.1043 22.5486V17.1181C30.1043 17.0863 30.1043 17.0619 30.1043 17.0421C30.1042 17.0261 30.1041 17.0132 30.104 17.002C30.1038 16.9892 30.1036 16.9803 30.1036 16.9803C30.094 16.8617 29.9684 16.6647 29.6764 16.6469C29.6764 16.6469 29.6694 16.6464 29.6418 16.6462ZM29.5375 14.5208C29.6316 14.5208 29.7222 14.5208 29.8055 14.5258C31.0399 14.601 32.1316 15.532 32.2234 16.8325C32.2294 16.9178 32.2294 17.0097 32.2293 17.0949C32.2293 17.1027 32.2293 17.1104 32.2293 17.1181V22.5486C32.2293 22.5563 32.2293 22.564 32.2293 22.5717C32.2294 22.6569 32.2294 22.7489 32.2234 22.8341C32.1316 24.1346 31.0399 25.0657 29.8055 25.1408C29.7222 25.1459 29.6315 25.1459 29.5375 25.1458C29.5297 25.1458 29.5219 25.1458 29.5141 25.1458H25.8271C22.788 25.1458 20.1877 22.8401 20.1877 19.8333C20.1877 16.8265 22.788 14.5208 25.8271 14.5208H29.5141C29.5219 14.5208 29.5297 14.5208 29.5375 14.5208Z" fill="#1C274C"/>
<path d="M26.9168 19.8333C26.9168 20.6157 26.2826 21.25 25.5002 21.25C24.7178 21.25 24.0835 20.6157 24.0835 19.8333C24.0835 19.0509 24.7178 18.4167 25.5002 18.4167C26.2826 18.4167 26.9168 19.0509 26.9168 19.8333Z" fill="#1C274C"/>
<path fill-rule="evenodd" clip-rule="evenodd" d="M29.5375 14.5208C29.6316 14.5208 29.7222 14.5208 29.8055 14.5258C30.1249 14.5453 30.4347 14.622 30.7201 14.7476C30.5686 12.4718 30.1513 10.718 28.8417 9.40843C27.7816 8.34825 26.4372 7.87775 24.7763 7.65444L24.7164 7.64651C24.7015 7.6355 24.6863 7.62482 24.6707 7.61448L19.3787 4.10558C17.5326 2.88147 15.0511 2.88147 13.2049 4.10558L7.91301 7.61448C7.89741 7.62482 7.88217 7.6355 7.8673 7.64651L7.80738 7.65444C6.14645 7.87775 4.8021 8.34825 3.74192 9.40843C2.68174 10.4686 2.21124 11.813 1.98794 13.4739C1.77096 15.0878 1.77097 17.1499 1.771 19.7534V19.9133C1.77097 22.5168 1.77096 24.5789 1.98794 26.1928C2.21124 27.8537 2.68174 29.1981 3.74192 30.2582C4.80211 31.3184 6.14645 31.7889 7.80738 32.0122C9.42127 32.2292 11.4834 32.2292 14.0869 32.2292H18.4967C21.1002 32.2292 23.1624 32.2292 24.7763 32.0122C26.4372 31.7889 27.7816 31.3184 28.8417 30.2582C30.1513 28.9487 30.5686 27.1949 30.7201 24.9191C30.4347 25.0447 30.1249 25.1214 29.8055 25.1408C29.7222 25.1459 29.6315 25.1459 29.5375 25.1458L29.5141 25.1458H28.5714C28.4101 27.0462 28.0454 28.0494 27.3391 28.7556C26.7396 29.3552 25.9184 29.7145 24.4931 29.9062C23.0373 30.1019 21.1182 30.1042 18.4168 30.1042H14.1668C11.4655 30.1042 9.54639 30.1019 8.09053 29.9062C6.66524 29.7146 5.84407 29.3552 5.24453 28.7556C4.64498 28.1561 4.28561 27.3349 4.09399 25.9096C3.89825 24.4538 3.896 22.5347 3.896 19.8333C3.896 17.132 3.89825 15.2129 4.09399 13.757C4.28561 12.3317 4.64498 11.5106 5.24453 10.911C5.84407 10.3115 6.66524 9.95212 8.09053 9.76049C9.54639 9.56476 11.4655 9.5625 14.1668 9.5625H18.4168C21.1182 9.5625 23.0373 9.56476 24.4931 9.76049C25.9184 9.95212 26.7396 10.3115 27.3391 10.911C28.0454 11.6173 28.4101 12.6204 28.5714 14.5208H29.5141L29.5375 14.5208ZM14.0869 7.4375H18.4968C19.2285 7.43749 19.9174 7.43749 20.5657 7.4423L18.2044 5.87663C17.07 5.12446 15.5136 5.12446 14.3793 5.87663L12.018 7.4423C12.6663 7.43749 13.3552 7.43749 14.0869 7.4375Z" fill="#1C274C"/>
<path d="M8.50016 13.1042C7.91336 13.1042 7.43766 13.5799 7.43766 14.1667C7.43766 14.7535 7.91336 15.2292 8.50016 15.2292H14.1668C14.7536 15.2292 15.2293 14.7535 15.2293 14.1667C15.2293 13.5799 14.7536 13.1042 14.1668 13.1042H8.50016Z" fill="#1C274C"/>
<path fill-rule="evenodd" clip-rule="evenodd" d="M26.9168 19.8333C26.9168 20.6157 26.2826 21.25 25.5002 21.25C24.7178 21.25 24.0835 20.6157 24.0835 19.8333C24.0835 19.0509 24.7178 18.4167 25.5002 18.4167C26.2826 18.4167 26.9168 19.0509 26.9168 19.8333Z" fill="#1C274C"/>
</g>
</svg>
