<svg width="30" height="30" viewBox="0 0 30 30" fill="none" xmlns="http://www.w3.org/2000/svg">
<path fill-rule="evenodd" clip-rule="evenodd" d="M15 1.5625C11.7208 1.5625 9.0625 4.22081 9.0625 7.5C9.0625 10.7792 11.7208 13.4375 15 13.4375C18.2792 13.4375 20.9375 10.7792 20.9375 7.5C20.9375 4.22081 18.2792 1.5625 15 1.5625ZM10.9375 7.5C10.9375 5.25634 12.7563 3.4375 15 3.4375C17.2437 3.4375 19.0625 5.25634 19.0625 7.5C19.0625 9.74366 17.2437 11.5625 15 11.5625C12.7563 11.5625 10.9375 9.74366 10.9375 7.5Z" fill="#A2A2C2"/>
<path d="M22.5 4.0625C21.9822 4.0625 21.5625 4.48223 21.5625 5C21.5625 5.51777 21.9822 5.9375 22.5 5.9375C24.2206 5.9375 25.3125 7.06966 25.3125 8.125C25.3125 9.18034 24.2206 10.3125 22.5 10.3125C21.9822 10.3125 21.5625 10.7322 21.5625 11.25C21.5625 11.7678 21.9822 12.1875 22.5 12.1875C24.9215 12.1875 27.1875 10.5214 27.1875 8.125C27.1875 5.72856 24.9215 4.0625 22.5 4.0625Z" fill="#A2A2C2"/>
<path d="M8.4375 5C8.4375 4.48223 8.01777 4.0625 7.5 4.0625C5.07847 4.0625 2.8125 5.72856 2.8125 8.125C2.8125 10.5214 5.07847 12.1875 7.5 12.1875C8.01777 12.1875 8.4375 11.7678 8.4375 11.25C8.4375 10.7322 8.01777 10.3125 7.5 10.3125C5.77939 10.3125 4.6875 9.18034 4.6875 8.125C4.6875 7.06966 5.77939 5.9375 7.5 5.9375C8.01777 5.9375 8.4375 5.51777 8.4375 5Z" fill="#A2A2C2"/>
<path fill-rule="evenodd" clip-rule="evenodd" d="M15 15.3125C12.7697 15.3125 10.7081 15.9135 9.17667 16.9344C7.65182 17.951 6.5625 19.4583 6.5625 21.25C6.5625 23.0417 7.65182 24.549 9.17667 25.5656C10.7081 26.5865 12.7697 27.1875 15 27.1875C17.2303 27.1875 19.2919 26.5865 20.8233 25.5656C22.3482 24.549 23.4375 23.0417 23.4375 21.25C23.4375 19.4583 22.3482 17.951 20.8233 16.9344C19.2919 15.9135 17.2303 15.3125 15 15.3125ZM8.4375 21.25C8.4375 20.2803 9.02711 19.2876 10.2167 18.4945C11.3998 17.7058 13.0882 17.1875 15 17.1875C16.9118 17.1875 18.6002 17.7058 19.7833 18.4945C20.9729 19.2876 21.5625 20.2803 21.5625 21.25C21.5625 22.2197 20.9729 23.2124 19.7833 24.0055C18.6002 24.7942 16.9118 25.3125 15 25.3125C13.0882 25.3125 11.3998 24.7942 10.2167 24.0055C9.02711 23.2124 8.4375 22.2197 8.4375 21.25Z" fill="#A2A2C2"/>
<path d="M24.0843 17.2992C24.1952 16.7934 24.6951 16.4734 25.2008 16.5843C26.4032 16.8479 27.4866 17.3242 28.291 17.9824C29.0947 18.64 29.6875 19.544 29.6875 20.625C29.6875 21.706 29.0947 22.61 28.291 23.2676C27.4866 23.9258 26.4032 24.4021 25.2008 24.6657C24.6951 24.7766 24.1952 24.4566 24.0843 23.9508C23.9734 23.4451 24.2934 22.9452 24.7992 22.8343C25.7896 22.6171 26.5812 22.244 27.1036 21.8165C27.6267 21.3884 27.8125 20.9704 27.8125 20.625C27.8125 20.2796 27.6267 19.8616 27.1036 19.4335C26.5812 19.006 25.7896 18.6329 24.7992 18.4157C24.2934 18.3048 23.9734 17.8049 24.0843 17.2992Z" fill="#A2A2C2"/>
<path d="M4.79918 16.5843C5.30493 16.4734 5.80483 16.7934 5.91574 17.2992C6.02665 17.8049 5.70657 18.3048 5.20082 18.4157C4.21036 18.6329 3.41881 19.006 2.8964 19.4335C2.37329 19.8616 2.1875 20.2796 2.1875 20.625C2.1875 20.9704 2.37329 21.3884 2.8964 21.8165C3.41881 22.244 4.21036 22.6171 5.20082 22.8343C5.70657 22.9452 6.02665 23.4451 5.91574 23.9508C5.80483 24.4566 5.30493 24.7766 4.79918 24.6657C3.59683 24.4021 2.51338 23.9258 1.70899 23.2676C0.905311 22.61 0.3125 21.706 0.3125 20.625C0.3125 19.544 0.905311 18.64 1.70899 17.9824C2.51338 17.3242 3.59683 16.8479 4.79918 16.5843Z" fill="#A2A2C2"/>
</svg>
