<svg width="27" height="26" viewBox="0 0 27 26" fill="none" xmlns="http://www.w3.org/2000/svg">
<path fill-rule="evenodd" clip-rule="evenodd" d="M9.83068 1.52572C11.8591 0.57476 14.1413 0.574761 16.1697 1.52572L24.5337 5.44695C25.8491 6.06363 26.4377 7.40278 26.4377 8.62503C26.4377 9.84728 25.8491 11.1864 24.5337 11.8031L22.6875 12.6686V18.7818C22.6875 20.3481 21.9022 21.8603 20.4725 22.6521C19.5329 23.1725 18.298 23.7989 16.9985 24.2975C15.7144 24.7901 14.2924 25.1875 13 25.1875C11.7076 25.1875 10.2856 24.7901 9.00146 24.2975C7.70198 23.7989 6.46714 23.1725 5.52748 22.6521C4.09782 21.8603 3.3125 20.3481 3.3125 18.7818V12.375C3.3125 12.3232 3.3167 12.2724 3.32478 12.2229C3.29537 12.0428 3.3181 11.8523 3.4014 11.6746C3.62119 11.2058 4.1794 11.004 4.6482 11.2237L10.6267 14.0266C12.1508 14.7411 13.8498 14.7411 15.3739 14.0266L23.7378 10.1054C24.2418 9.86914 24.5627 9.30553 24.5627 8.62503C24.5627 7.94452 24.2418 7.38091 23.7378 7.14464L15.3738 3.22341C13.8497 2.50886 12.1507 2.50886 10.6266 3.22341L2.26271 7.14459C1.7939 7.36437 1.23569 7.1625 1.01591 6.6937C0.79612 6.22489 0.997989 5.66668 1.46679 5.4469L9.83068 1.52572ZM5.1875 13.5474V18.7818C5.1875 19.7355 5.66094 20.5827 6.43586 21.0118C7.33167 21.5079 8.48348 22.0905 9.67306 22.5469C10.8779 23.0091 12.0474 23.3125 13 23.3125C13.9526 23.3125 15.1221 23.0091 16.327 22.5469C17.5165 22.0905 18.6683 21.5079 19.5641 21.0118C20.3391 20.5827 20.8125 19.7355 20.8125 18.7818V13.5477L16.1698 15.7243C14.1414 16.6752 11.8592 16.6752 9.83079 15.7243L5.1875 13.5474Z" fill="#A2A2C2"/>
<path d="M6.3617 7.6307C6.56566 8.1066 6.34521 8.65774 5.8693 8.8617L4.52471 9.43795C3.77125 9.76087 3.27481 9.975 2.91 10.1802C2.56502 10.3743 2.41556 10.5193 2.32056 10.6633C2.22557 10.8074 2.15119 11.0019 2.1087 11.3954C2.06377 11.8116 2.0625 12.3522 2.0625 13.172V16.75C2.0625 17.2678 1.64277 17.6875 1.125 17.6875C0.607236 17.6875 0.187501 17.2678 0.187501 16.75V13.1234C0.187477 12.3653 0.187456 11.7228 0.244533 11.1942C0.305267 10.6316 0.437331 10.1133 0.755237 9.63118C1.07314 9.14906 1.49756 8.82349 1.99067 8.54607C2.45409 8.28537 3.04461 8.03231 3.74143 7.7337L5.1307 7.1383C5.60661 6.93434 6.15774 7.1548 6.3617 7.6307Z" fill="#A2A2C2"/>
</svg>
